<?xml version="1.0" encoding="UTF-8"?>
<svg id="Layer_2" data-name="Layer 2" xmlns="http://www.w3.org/2000/svg" viewBox="0 0 992.74 333.61">
  <defs>
    <style>
      .cls-1 {
        fill: #231f20;
      }
    </style>
  </defs>
  <g id="Layer_1-2" data-name="Layer 1">
    <g>
      <g>
        <path class="cls-1" d="M80.05,0c44.16,0,80.05,35.89,80.05,80.05s-35.89,80.06-80.05,80.06S0,124.22,0,80.05,35.89,0,80.05,0ZM80.05,150.67c38.49,0,69.9-31.65,69.9-70.61S118.54,9.45,80.05,9.45,10.15,41.09,10.15,80.05s31.41,70.61,69.9,70.61Z"/>
        <path class="cls-1" d="M278.04,156.57h-97.05V3.55h93.99c13.93,0,25.5,11.33,25.5,25.03,0,6.85-3.07,14.87-8.5,18.89,24.32,5.9,43.21,27.86,43.21,53.37,0,30.69-25.5,55.73-57.15,55.73ZM275.21,12.99h-84.3v32.59h84.07c8.26,0,15.35-8.26,15.35-17s-7.08-15.59-15.11-15.59ZM278.28,55.03h-87.38v92.09h87.38c25.74,0,46.75-20.78,46.75-46.05s-21.01-46.05-46.75-46.05Z"/>
        <path class="cls-1" d="M501.1,3.55h9.92v78.16c0,43.22-35.19,78.4-78.4,78.4s-78.17-35.19-78.17-78.4h9.45c0,38.02,30.69,68.96,68.72,68.96s68.48-30.93,68.48-68.96V3.55Z"/>
        <path class="cls-1" d="M689.79,156.57h-148.3V3.55h148.3v9.45h-138.38v104.14h138.38v9.45h-138.38v20.55h138.38v9.45Z"/>
        <path class="cls-1" d="M855.49,117.84c-13.46,25.03-40.15,42.28-70.61,42.28-44.16,0-80.05-35.89-80.05-80.06S740.73,0,784.88,0c29.99,0,56.2,16.77,69.9,41.33l-8.51,5.19c-11.8-21.96-34.95-37.08-61.39-37.08-38.49,0-69.9,31.65-69.9,70.61s31.41,70.61,69.9,70.61c26.92,0,51.01-15.82,62.58-37.78l8.03,4.95Z"/>
        <path class="cls-1" d="M992.74,12.99h-61.16v143.58h-9.92V12.99h-61.16V3.55h132.24v9.45Z"/>
      </g>
      <g>
        <path class="cls-1" d="M203.25,330.07H57.31v-153.02h9.92v143.58h136.02v9.45Z"/>
        <path class="cls-1" d="M372.32,330.07h-148.3v-153.02h148.3v9.45h-138.38v104.14h138.38v9.45h-138.38v20.55h138.38v9.45Z"/>
        <path class="cls-1" d="M389.65,324.4c17.48-2.84,33.06-33.06,44.63-57.15l13.46-27.86c10.63-21.72,28.81-60.45,56.67-65.89l2.13,9.92c-23.14,5.43-38.73,36.37-50.07,59.98l-13.46,27.87c-12.75,26.45-29.04,58.8-51.25,62.34l-2.12-9.21Z"/>
        <path class="cls-1" d="M478.66,324.4c17.48-2.84,33.06-33.06,44.63-57.15l13.46-27.86c10.63-21.72,28.81-60.45,56.67-65.89l2.13,9.92c-23.14,5.43-38.73,36.37-50.07,59.98l-13.46,27.87c-12.75,26.45-29.04,58.8-51.25,62.34l-2.12-9.21Z"/>
        <path class="cls-1" d="M675.58,173.5c44.16,0,80.05,35.89,80.05,80.05s-35.89,80.06-80.05,80.06-80.05-35.89-80.05-80.06,35.89-80.05,80.05-80.05ZM675.58,324.17c38.49,0,69.9-31.65,69.9-70.61s-31.41-70.61-69.9-70.61-69.9,31.65-69.9,70.61,31.41,70.61,69.9,70.61Z"/>
        <path class="cls-1" d="M923.49,330.07l-132.24-137.2v137.2h-9.92v-153.02h8.51l132.24,137.2v-137.2h9.92v153.02h-8.51Z"/>
      </g>
    </g>
  </g>
</svg>